# xmcd CD database file
#
# Track frame offsets:
#	150
#	27757
#	44062
#	66467
#	85107
#	105535
#	132947
#	157612
#	194490
#	228597
#	250390
#	282515
#	309540
#
# Disc length: 4500 seconds
#
# Revision: 4
# Processed by: cddbd v1.5.2PL0 Copyright (c) Steve Scherf et al.
# Submitted via: CDex 1.51
#
DISCID=b611920d
DTITLE=Various Artist - Metal Militia - A Tribute To Metallica II
DYEAR=1996
DGENRE=Metal
TTITLE0=Lisa Gives Head - Four Horsemen
TTITLE1=Buttfuck - Whiplash
TTITLE2=Mobile Mob Freakshow - Phantom Lord
TTITLE3=Exmortem - Metal Militia
TTITLE4=Furious Trauma - Trapped Under Ice
TTITLE5=Physical Attraction - Creeping Death
TTITLE6=Blakk Totem - Battery
TTITLE7=Holocaust - Master Of Puppets
TTITLE8=Fantasmagoria - Blackended
TTITLE9=Grope - ... And Justice For All
TTITLE10=Ungratefull - One
TTITLE11=Color Blind - Harvester Of Sorrow
TTITLE12=Colossus - Sad But True
EXTD=YEAR: 1996
EXTT0=
EXTT1=
EXTT2=
EXTT3=
EXTT4=
EXTT5=
EXTT6=
EXTT7=
EXTT8=
EXTT9=
EXTT10=
EXTT11=
EXTT12=
PLAYORDER=
